<?xml version="1.0" encoding="UTF-8" standalone="no"?> <svg xmlns="http://www.w3.org/2000/svg" xmlns:xlink="http://www.w3.org/1999/xlink" xmlns:serif="http://www.serif.com/" width="100%" height="100%" viewBox="0 0 376 108" version="1.1" xml:space="preserve" style="fill-rule:evenodd;clip-rule:evenodd;stroke-linejoin:round;stroke-miterlimit:2;"><g id="Warstwa-1" serif:id="Warstwa 1"></g><rect id="Artboard17" x="0" y="0" width="376" height="108" style="fill:none;"></rect><path d="M47.724,24.366l7.356,22.638l23.803,0l-19.257,13.992l7.355,22.638l-19.257,-13.991l-19.257,13.991l7.355,-22.638l-19.257,-13.992l23.803,0l7.356,-22.638Z"></path><path d="M188,24.366l7.356,22.638l23.803,0l-19.257,13.992l7.355,22.638l-19.257,-13.991l-19.257,13.991l7.355,-22.638l-19.257,-13.992l23.803,0l7.356,-22.638Z"></path><path d="M117.862,24.366l7.356,22.638l23.803,0l-19.257,13.992l7.355,22.638l-19.257,-13.991l-19.257,13.991l7.355,-22.638l-19.257,-13.992l23.803,0l7.356,-22.638Z"></path><path d="M258.138,24.366l7.356,22.638l23.803,0l-19.257,13.992l7.355,22.638l-19.257,-13.991l-19.257,13.991l7.355,-22.638l-19.257,-13.992l23.803,0l7.356,-22.638Z"></path><path d="M328.276,24.366l7.356,22.638l23.803,0l-19.257,13.992l7.355,22.638l-19.257,-13.991l-19.257,13.991l7.355,-22.638l-19.257,-13.992l23.803,0l7.356,-22.638Z"></path></svg> 